<svg width="100" height="39" viewBox="0 0 100 39" fill="none" xmlns="http://www.w3.org/2000/svg">
<mask id="path-1-inside-1_61_222" fill="white">
<path d="M35.3838 6.99902C36.0711 7.75238 37.0437 8.18156 38.0635 8.18164H61.1162C62.1086 8.18162 63.0575 7.77505 63.7422 7.05664L69.0372 1.50016C69.9501 0.542156 71.2157 0 72.539 0H94.6276C97.2991 0 99.4648 2.16569 99.4648 4.83721V34.1628C99.4648 36.8343 97.2991 39 94.6276 39H64.3331C62.6237 39 61.0411 38.0977 60.1704 36.6267L58.8643 34.4199C57.9936 32.949 56.4114 32.047 54.7021 32.0469H45.0117C43.4678 32.047 42.0161 32.7835 41.1055 34.0303L38.9248 37.0159C38.014 38.2628 36.5627 39 35.0186 39H4.83721C2.16569 39 0 36.8343 0 34.1628V4.83721C0 2.16569 2.16569 0 4.83721 0H26.8634C28.2232 0 29.5203 0.572376 30.4368 1.57693L35.3838 6.99902Z"/>
</mask>
<path d="M35.3838 6.99902C36.0711 7.75238 37.0437 8.18156 38.0635 8.18164H61.1162C62.1086 8.18162 63.0575 7.77505 63.7422 7.05664L69.0372 1.50016C69.9501 0.542156 71.2157 0 72.539 0H94.6276C97.2991 0 99.4648 2.16569 99.4648 4.83721V34.1628C99.4648 36.8343 97.2991 39 94.6276 39H64.3331C62.6237 39 61.0411 38.0977 60.1704 36.6267L58.8643 34.4199C57.9936 32.949 56.4114 32.047 54.7021 32.0469H45.0117C43.4678 32.047 42.0161 32.7835 41.1055 34.0303L38.9248 37.0159C38.014 38.2628 36.5627 39 35.0186 39H4.83721C2.16569 39 0 36.8343 0 34.1628V4.83721C0 2.16569 2.16569 0 4.83721 0H26.8634C28.2232 0 29.5203 0.572376 30.4368 1.57693L35.3838 6.99902Z" fill="url(#paint0_linear_61_222)" fill-opacity="0.1"/>
<path d="M35.3838 6.99902L35.6071 6.79526V6.79526L35.3838 6.99902ZM38.0635 8.18164L38.0635 8.48397H38.0635V8.18164ZM61.1162 8.18164V8.48397H61.1162L61.1162 8.18164ZM63.7422 7.05664L63.961 7.26522L63.9611 7.26521L63.7422 7.05664ZM58.8643 34.4199L58.6041 34.5739V34.5739L58.8643 34.4199ZM54.7021 32.0469L54.7022 31.7445H54.7021V32.0469ZM45.0117 32.0469V31.7445H45.0117L45.0117 32.0469ZM41.1055 34.0303L40.8613 33.852V33.852L41.1055 34.0303ZM60.1704 36.6267L59.9103 36.7807L60.1704 36.6267ZM30.4368 1.57693L30.2135 1.7807L30.4368 1.57693ZM69.0372 1.50016L69.2561 1.70873L69.0372 1.50016ZM35.3838 6.99902L35.1604 7.20279C35.9051 8.01893 36.9587 8.48388 38.0635 8.48397L38.0635 8.18164L38.0635 7.87931C37.1287 7.87924 36.2372 7.48582 35.6071 6.79526L35.3838 6.99902ZM38.0635 8.18164V8.48397H61.1162V8.18164V7.87931H38.0635V8.18164ZM61.1162 8.18164L61.1162 8.48397C62.1914 8.48395 63.2193 8.04348 63.961 7.26522L63.7422 7.05664L63.5233 6.84806C62.8957 7.50662 62.0259 7.8793 61.1162 7.87931L61.1162 8.18164ZM63.7422 7.05664L63.9611 7.26521L69.2561 1.70873L69.0372 1.50016L68.8184 1.2916L63.5233 6.84808L63.7422 7.05664ZM72.539 0V0.302326H94.6276V0V-0.302326H72.539V0ZM99.4648 4.83721H99.1625V34.1628H99.4648H99.7672V4.83721H99.4648ZM94.6276 39V38.6977H64.3331V39V39.3023H94.6276V39ZM60.1704 36.6267L60.4306 36.4727L59.1244 34.2659L58.8643 34.4199L58.6041 34.5739L59.9103 36.7807L60.1704 36.6267ZM58.8643 34.4199L59.1244 34.2659C58.1994 32.703 56.5183 31.7447 54.7022 31.7445L54.7021 32.0469L54.7021 32.3492C56.3046 32.3493 57.7879 33.1949 58.6041 34.5739L58.8643 34.4199ZM54.7021 32.0469V31.7445H45.0117V32.0469V32.3492H54.7021V32.0469ZM45.0117 32.0469L45.0117 31.7445C43.3714 31.7447 41.829 32.5271 40.8613 33.852L41.1055 34.0303L41.3496 34.2086C42.2033 33.0398 43.5642 32.3493 45.0117 32.3492L45.0117 32.0469ZM41.1055 34.0303L40.8613 33.852L38.6806 36.8376L38.9248 37.0159L39.1689 37.1942L41.3496 34.2086L41.1055 34.0303ZM35.0186 39V38.6977H4.83721V39V39.3023H35.0186V39ZM0 34.1628H0.302326V4.83721H0H-0.302326V34.1628H0ZM4.83721 0V0.302326H26.8634V0V-0.302326H4.83721V0ZM30.4368 1.57693L30.2135 1.7807L35.1604 7.20279L35.3838 6.99902L35.6071 6.79526L30.6601 1.37316L30.4368 1.57693ZM0 4.83721H0.302326C0.302326 2.33266 2.33266 0.302326 4.83721 0.302326V0V-0.302326C1.99872 -0.302326 -0.302326 1.99872 -0.302326 4.83721H0ZM4.83721 39V38.6977C2.33266 38.6977 0.302326 36.6673 0.302326 34.1628H0H-0.302326C-0.302326 37.0013 1.99872 39.3023 4.83721 39.3023V39ZM38.9248 37.0159L38.6806 36.8376C37.8268 38.0066 36.4662 38.6977 35.0186 38.6977V39V39.3023C36.6592 39.3023 38.2012 38.5191 39.1689 37.1942L38.9248 37.0159ZM64.3331 39V38.6977C62.7305 38.6977 61.2469 37.8518 60.4306 36.4727L60.1704 36.6267L59.9103 36.7807C60.8354 38.3437 62.5168 39.3023 64.3331 39.3023V39ZM99.4648 34.1628H99.1625C99.1625 36.6673 97.1322 38.6977 94.6276 38.6977V39V39.3023C97.4661 39.3023 99.7672 37.0013 99.7672 34.1628H99.4648ZM94.6276 0V0.302326C97.1322 0.302326 99.1625 2.33266 99.1625 4.83721H99.4648H99.7672C99.7672 1.99872 97.4661 -0.302326 94.6276 -0.302326V0ZM26.8634 0V0.302326C28.1382 0.302326 29.3542 0.838928 30.2135 1.7807L30.4368 1.57693L30.6601 1.37316C29.6863 0.305824 28.3082 -0.302326 26.8634 -0.302326V0ZM69.0372 1.50016L69.2561 1.70873C70.112 0.810597 71.2984 0.302326 72.539 0.302326V0V-0.302326C71.133 -0.302326 69.7883 0.273715 68.8184 1.2916L69.0372 1.50016Z" fill="white" fill-opacity="0.05" mask="url(#path-1-inside-1_61_222)"/>
<defs>
<linearGradient id="paint0_linear_61_222" x1="52.9223" y1="-8.04546" x2="34.1324" y2="39.8201" gradientUnits="userSpaceOnUse">
<stop stop-color="#2D2D2D"/>
<stop offset="0.413462" stop-color="#2E9555"/>
<stop offset="1" stop-color="#2E4737"/>
</linearGradient>
</defs>
</svg>
